<svg x="0" y="0" width="1955" height="1222" viewBox="0 0 1955 1222" version="1.1" xmlns="http://www.w3.org/2000/svg" xmlns:xlink="http://www.w3.org/1999/xlink"
  style="display: block;margin-left: auto;margin-right: auto;">

  <path d="M0,0
  L0,1222
  L1955,1222
  L1955,0 Z "
  fill="#FFFFFF" stroke="none" />
  <path d="M1231.4,765.4l-385,0l0,-409.4l385,0l0,409.4Z" class="g1_1" />
  <path d="M1063,485.9c-1.5,0,-3,-0.2,-4.5,-0.2c-51.1,0,-92.6,41.5,-92.6,92.6c0,51.1,41.5,92.6,92.6,92.6c1.5,0,3,-0.1,4.5,-0.2c-32,-18.3,-53.6,-52.8,-53.6,-92.4c0,-39.5,21.6,-74,53.6,-92.4Z" class="g2_1" />
  <path d="M900.7,578.3C900.7,505.9,959.6,447,1032,447c18.3,0,35.7,3.8,51.6,10.6c-21.6,-13.4,-47,-21.1,-74.2,-21.1c-78.2,0,-141.8,63.6,-141.8,141.8c0,78.2,63.6,141.8,141.8,141.8c27.2,0,52.6,-7.7,74.2,-21c-15.9,6.8,-33.3,10.5,-51.6,10.5c-72.4,0,-131.3,-58.9,-131.3,-131.3Z" class="g2_1" />
  <path d="M1090.9,474.9c-17.4,-10,-37.5,-15.7,-58.9,-15.7c-65.7,0,-119.1,53.4,-119.1,119.1c0,65.7,53.4,119.1,119.1,119.1c21.4,0,41.5,-5.7,58.9,-15.7c-2.4,-0.5,-4.8,-1.1,-7.1,-1.8c-8.1,2,-16.5,3.2,-25.3,3.2c-57.8,0,-104.8,-47,-104.8,-104.8c0,-57.8,47,-104.8,104.8,-104.8c8.8,0,17.2,1.2,25.3,3.2c2.3,-0.7,4.7,-1.2,7.1,-1.8Z" class="g2_1" />
  <path d="M1120.6,684.6c-28,29.3,-67.5,47.7,-111.2,47.7c-84.9,0,-154,-69.1,-154,-154c0,-84.9,69.1,-153.9,154,-153.9c43.7,0,83.2,18.3,111.2,47.7c56.6,2.4,101.8,49,101.8,106.2c0,57.3,-45.2,103.8,-101.8,106.3M1233,330.9l-388.2,0c-29.5,0,-53.3,23.9,-53.3,53.3l0,388.2c0,29.5,23.8,53.3,53.3,53.3l388.2,0c29.5,0,53.3,-23.8,53.3,-53.3l0,-388.2c0,-29.4,-23.8,-53.3,-53.3,-53.3Z" class="g2_1" />
</svg>
