<?xml version="1.0" encoding="utf-8"?>
<!-- Generator: Adobe Illustrator 21.1.0, SVG Export Plug-In . SVG Version: 6.00 Build 0)  -->
<svg version="1.1" id="svg2" xmlns="http://www.w3.org/2000/svg" xmlns:xlink="http://www.w3.org/1999/xlink" x="0px" y="0px"
	 viewBox="0 0 318.2 402.2" style="enable-background:new 0 0 318.2 402.2;" xml:space="preserve">
<style type="text/css">
	.st0{fill:#FFFFFF;}
</style>
<path id="FinancialTimes" class="st0" d="M70.7,189.1c0,2.7,0.7,3,3.8,3.1v1H62.2v-1c2.5-0.1,3.3-0.4,3.3-3.1v-17.6
	c0-2.7-0.7-3-3.2-3.1v-1h21.6L84,173H83c-0.9-2.9-1.9-3.8-7-3.8h-3.9c-1.2,0-1.4,0.3-1.4,1.3v8.2h4.4c4,0,4.9-0.7,5.4-3.4h1v9.1h-1
	c-0.5-3.1-2.1-3.8-5.4-3.8h-4.4L70.7,189.1L70.7,189.1z M96.2,189.1c0,2.7,0.7,3,3.8,3.1v1H87.2v-1c3.1-0.1,3.8-0.4,3.8-3.1v-17.6
	c0-2.7-0.7-3-3.8-3.1v-1H100v1c-3.1,0.1-3.8,0.4-3.8,3.1C96.2,171.4,96.2,189.1,96.2,189.1z M126.6,172.1c0-2.5-0.7-3.5-3.5-3.8v-1
	h9.1v1c-2.8,0.3-3.5,1.3-3.5,3.8v21.7h-1.3l-17.7-20.4v14.9c0,2.5,0.7,3.5,3.5,3.8v1h-9.1v-1c2.8-0.3,3.5-1.3,3.5-3.8v-17.4
	c-0.9-1.5-1.9-2.3-3.5-2.6v-1h7l15.4,17.8V172.1z M140.4,183.9l3.9-10.2l3.8,10.2C148.2,183.9,140.4,183.9,140.4,183.9z M159,193.1
	v-1c-1.9,0-2.4-0.8-3.4-3.2l-9.1-22.3h-1.3l-9.5,23.1c-0.6,1.6-1.5,2.1-3.2,2.4v1h8.2v-1c-1.8,0-2.7-0.4-2.7-1.6
	c0-1.1,1.2-3.9,1.5-4.8h9.4c0.3,0.8,1.6,3.7,1.6,4.8c0,1.3-0.9,1.6-2.7,1.6v1L159,193.1L159,193.1z M184,172.1
	c0-2.5-0.7-3.5-3.5-3.8v-1h9.1v1c-2.8,0.3-3.5,1.3-3.5,3.8v21.7h-1.3l-17.7-20.4l0,14.9c0,2.5,0.7,3.5,3.5,3.8v1h-9.1v-1
	c2.8-0.3,3.5-1.3,3.5-3.8v-17.4c-0.9-1.5-1.9-2.3-3.5-2.6v-1h7l15.4,17.8L184,172.1L184,172.1z M216.7,187.1
	c-2.7,4.6-6.2,6.7-11.6,6.7c-8.4,0-13.4-5.5-13.4-13.8c0-5.9,4.6-13.3,13.7-13.3c2.7,0,6.5,1.5,7.1,1.5c0.8,0,1-0.4,1.6-1.5h1.3
	l0.5,8.6h-1.1c-1.5-4-4.2-6.9-8.8-6.9c-6.1,0-8.8,6.6-8.8,11.6c0,7,3,11.7,9.4,11.7c5,0,7.8-3.7,9-5.4L216.7,187.1z M229.3,189.1
	c0,2.7,0.7,3,3.8,3.1v1h-12.8v-1c3.1-0.1,3.8-0.4,3.8-3.1v-17.6c0-2.7-0.7-3-3.8-3.1v-1h12.8v1c-3.1,0.1-3.8,0.4-3.8,3.1V189.1z
	 M243.7,183.9l3.9-10.2l3.8,10.2C251.4,183.9,243.7,183.9,243.7,183.9z M262.2,193.1v-1c-1.9,0-2.4-0.8-3.4-3.2l-9.1-22.3h-1.3
	l-9.5,23.1c-0.6,1.6-1.5,2.1-3.2,2.4v1h8.2v-1c-1.8,0-2.7-0.4-2.7-1.6c0-1.1,1.2-3.9,1.5-4.8h9.4c0.3,0.8,1.6,3.7,1.6,4.8
	c0,1.3-1,1.6-2.7,1.6v1L262.2,193.1L262.2,193.1z M264.5,193.1v-1c2.5-0.1,3.2-0.4,3.2-3.1v-17.6c0-2.7-0.7-3-3.2-3.1v-1h11.9v1
	c-2.9,0.1-3.6,0.4-3.6,3.1v18.1c0,1.6,0.5,2.1,3.4,2.1c4.6,0,7.4-0.8,9.6-5.4h1l-1.7,6.9C285,193.1,264.4,193.1,264.5,193.1z
	 M67.9,233.9c2.9-0.1,3.7-0.4,3.7-3.1v-19.9h-3.2c-3,0-4.2,1.2-5,4.7h-1.1l0.6-6.6h22.7l0.6,6.6h-1.1c-0.8-3.5-2-4.7-5-4.7h-3.2
	v19.9c0,2.7,0.7,3,3.6,3.1v1H67.9V233.9z M97.7,230.8c0,2.7,0.7,3,3.8,3.1v1H88.7v-1c3.1-0.1,3.8-0.4,3.8-3.1v-17.7
	c0-2.7-0.7-3-3.8-3.1v-1h12.8v1c-3.1,0.1-3.8,0.4-3.8,3.1C97.7,213.1,97.7,230.8,97.7,230.8z M128.7,209h8.9v1
	c-2.5,0.1-3.2,0.4-3.2,3.1v17.7c0,2.7,0.7,3,3.2,3.1v1H126v-1c2.5-0.1,3.3-0.4,3.3-3.1v-18.2h-0.1l-8.6,22.6h-1.2l-8.4-22.6h-0.1
	v17.5c0,2.5,0.7,3.5,3.5,3.8v1h-9.1v-1c2.8-0.3,3.5-1.3,3.5-3.8v-17.6c0-1.8-0.8-2.5-3.5-2.5v-1h9.4l6.9,17.9
	C121.5,227,128.7,209,128.7,209z M141.3,234.9v-1c2.5-0.1,3.2-0.4,3.2-3.1v-17.7c0-2.7-0.7-3-3.2-3.1v-1h21.6l0.2,5.7H162
	c-0.9-2.9-1.9-3.8-7-3.8h-3.9c-1.2,0-1.4,0.3-1.4,1.3v8.2h4.4c4,0,4.9-0.7,5.4-3.4h1v9.1h-1c-0.5-3-2.1-3.8-5.4-3.8h-4.4v9
	c0,1.5,0.5,2.1,5,2.1c4.6,0,7.4-0.8,9.6-5.4h1l-1.7,6.9H141.3L141.3,234.9z M168.6,226.8h1c1.1,3.4,4.4,7,8.2,7
	c3.3,0,4.4-2.3,4.4-4.3c0-5.9-13.4-7-13.4-14.4c0-3.6,3.5-6.6,7.4-6.6c3.9,0,5.2,1.4,7,1.4c0.7,0,1.2-0.6,1.4-1.4h1v8.2h-1
	c-1.1-3.7-3.7-6.5-7.2-6.5c-2.9,0-4,1.9-4,3.6c0,5.3,13.4,5.4,13.4,14.5c0,4.1-3.3,7.2-8,7.2c-4.6,0-5.7-1.6-7.5-1.6
	c-0.7,0-1.1,0.4-1.3,1.3h-1.4L168.6,226.8L168.6,226.8z"/>
</svg>
