<?xml version="1.0" encoding="utf-8"?>
<!-- Generator: Adobe Illustrator 21.1.0, SVG Export Plug-In . SVG Version: 6.00 Build 0)  -->
<svg version="1.1" id="svg2" xmlns="http://www.w3.org/2000/svg" xmlns:xlink="http://www.w3.org/1999/xlink" x="0px" y="0px"
	 viewBox="0 0 318.2 402.2" style="enable-background:new 0 0 318.2 402.2;" xml:space="preserve">
<style type="text/css">
	.st0{fill:#FFFFFF;}
</style>
<path class="st0" d="M46.6,48v223.7h223.7V48H46.6z M151.9,102c-3.6-11.3-7.4-14.9-27.2-14.9h-15.3c-4.6,0-5.6,1-5.6,5.2v32h7.5
	c15.8,0,19.2-2.8,21.1-13.4h3.9v35.7h-3.9c-2.1-11.9-8-14.8-21.1-14.8h-7.5v33l0,0c0,10.6,2.8,11.7,14.9,12.2v3.9H70.8v-3.9
	c10-0.4,12.8-1.6,12.8-12.2V95.8c0-10.6-2.8-11.8-12.5-12.2v-3.9h84.4l0.6,22.3H151.9z M248,102c-3.2-10.9-8-14.9-18.7-14.9h-12.5
	v77.6c0,10.6,2.8,11.7,14.3,12.2v3.9h-48.7v-3.9c11.4-0.5,14.3-1.6,14.3-12.2V87.1h-12.5c-10.7,0-15.4,4-18.7,14.9h-5.1l2.1-22.3
	h88.6l2.1,22.3H248z"/>
</svg>
