<?xml version="1.0" encoding="utf-8"?>
<!-- Generator: Adobe Illustrator 21.1.0, SVG Export Plug-In . SVG Version: 6.00 Build 0)  -->
<svg version="1.1" id="svg2" xmlns="http://www.w3.org/2000/svg" xmlns:xlink="http://www.w3.org/1999/xlink" x="0px" y="0px"
	 viewBox="0 0 223.9 68.2" style="enable-background:new 0 0 223.9 68.2;" xml:space="preserve">
<style type="text/css">
	.st0{fill:#FFFFFF;}
</style>
<path id="FinancialTimes" class="st0" d="M7.8,21.8c0,2.7,0.7,3,3.8,3.1v1H-0.7v-1c2.5-0.1,3.3-0.4,3.3-3.1V4.2c0-2.7-0.7-3-3.2-3.1
	v-1H21l0.1,5.6h-1c-0.9-2.9-1.9-3.8-7-3.8H9.2C8,1.9,7.8,2.2,7.8,3.2v8.2h4.4c4,0,4.9-0.7,5.4-3.4h1v9.1h-1
	c-0.5-3.1-2.1-3.8-5.4-3.8H7.8V21.8L7.8,21.8z M33.3,21.8c0,2.7,0.7,3,3.8,3.1v1H24.3v-1c3.1-0.1,3.8-0.4,3.8-3.1V4.2
	c0-2.7-0.7-3-3.8-3.1v-1h12.8v1c-3.1,0.1-3.8,0.4-3.8,3.1C33.3,4.1,33.3,21.8,33.3,21.8z M63.7,4.8c0-2.5-0.7-3.5-3.5-3.8V0h9.1v1
	c-2.8,0.3-3.5,1.3-3.5,3.8v21.7h-1.3L46.8,6.1V21c0,2.5,0.7,3.5,3.5,3.8v1h-9.1v-1c2.8-0.3,3.5-1.3,3.5-3.8V3.6
	c-0.9-1.5-1.9-2.3-3.5-2.6V0h7l15.4,17.8L63.7,4.8L63.7,4.8z M77.5,16.6l3.9-10.2l3.8,10.2C85.3,16.6,77.5,16.6,77.5,16.6z
	 M96.1,25.8v-1c-1.9,0-2.4-0.8-3.4-3.2L83.6-0.7h-1.3l-9.5,23.1c-0.6,1.6-1.5,2.1-3.2,2.4v1h8.2v-1c-1.8,0-2.7-0.4-2.7-1.6
	c0-1.1,1.2-3.9,1.5-4.8H86c0.3,0.8,1.6,3.7,1.6,4.8c0,1.3-0.9,1.6-2.7,1.6v1H96.1L96.1,25.8z M121.1,4.8c0-2.5-0.7-3.5-3.5-3.8V0
	h9.1v1c-2.8,0.3-3.5,1.3-3.5,3.8v21.7h-1.3L104.2,6.1V21c0,2.5,0.7,3.5,3.5,3.8v1h-9.1v-1c2.8-0.3,3.5-1.3,3.5-3.8V3.6
	c-0.9-1.5-1.9-2.3-3.5-2.6V0h7L121,17.8L121.1,4.8L121.1,4.8z M153.8,19.8c-2.7,4.6-6.2,6.7-11.6,6.7c-8.4,0-13.4-5.5-13.4-13.8
	c0-5.9,4.6-13.3,13.7-13.3c2.7,0,6.5,1.5,7.1,1.5c0.8,0,1-0.4,1.6-1.5h1.3L153,8h-1.1c-1.5-4-4.2-6.9-8.8-6.9
	c-6.1,0-8.8,6.6-8.8,11.6c0,7,3,11.7,9.4,11.7c5,0,7.8-3.7,9-5.4L153.8,19.8z M166.4,21.8c0,2.7,0.7,3,3.8,3.1v1h-12.8v-1
	c3.1-0.1,3.8-0.4,3.8-3.1V4.2c0-2.7-0.7-3-3.8-3.1v-1h12.8v1c-3.1,0.1-3.8,0.4-3.8,3.1V21.8z M180.8,16.6l3.9-10.2l3.8,10.2H180.8z
	 M199.3,25.8v-1c-1.9,0-2.4-0.8-3.4-3.2l-9.1-22.3h-1.3L176,22.4c-0.6,1.6-1.5,2.1-3.2,2.4v1h8.2v-1c-1.8,0-2.7-0.4-2.7-1.6
	c0-1.1,1.2-3.9,1.5-4.8h9.4c0.3,0.8,1.6,3.7,1.6,4.8c0,1.3-1,1.6-2.7,1.6v1H199.3L199.3,25.8z M201.6,25.8v-1
	c2.5-0.1,3.2-0.4,3.2-3.1V4.1c0-2.7-0.7-3-3.2-3.1V0h11.9v1c-2.9,0.1-3.6,0.4-3.6,3.1v18.1c0,1.6,0.5,2.1,3.4,2.1
	c4.6,0,7.4-0.8,9.6-5.4h1l-1.7,6.9C222.1,25.8,201.5,25.8,201.6,25.8z M5,66.6c2.9-0.1,3.7-0.4,3.7-3.1V43.6H5.5c-3,0-4.2,1.2-5,4.7
	h-1.1L0,41.7h22.7l0.6,6.6h-1.1c-0.8-3.5-2-4.7-5-4.7H14v19.9c0,2.7,0.7,3,3.6,3.1v1H5V66.6z M34.8,63.5c0,2.7,0.7,3,3.8,3.1v1H25.8
	v-1c3.1-0.1,3.8-0.4,3.8-3.1V45.8c0-2.7-0.7-3-3.8-3.1v-1h12.8v1c-3.1,0.1-3.8,0.4-3.8,3.1V63.5z M65.8,41.7h8.9v1
	c-2.5,0.1-3.2,0.4-3.2,3.1v17.7c0,2.7,0.7,3,3.2,3.1v1H63.1v-1c2.5-0.1,3.3-0.4,3.3-3.1V45.3h-0.1l-8.6,22.6h-1.2l-8.4-22.6H48v17.5
	c0,2.5,0.7,3.5,3.5,3.8v1h-9.1v-1c2.8-0.3,3.5-1.3,3.5-3.8V45.2c0-1.8-0.8-2.5-3.5-2.5v-1h9.4l6.9,17.9
	C58.6,59.7,65.8,41.7,65.8,41.7z M78.4,67.6v-1c2.5-0.1,3.2-0.4,3.2-3.1V45.8c0-2.7-0.7-3-3.2-3.1v-1H100l0.2,5.7h-1.1
	c-0.9-2.9-1.9-3.8-7-3.8h-3.9c-1.2,0-1.4,0.3-1.4,1.3v8.2h4.4c4,0,4.9-0.7,5.4-3.4h1v9.1h-1c-0.5-3-2.1-3.8-5.4-3.8h-4.4v9
	c0,1.5,0.5,2.1,5,2.1c4.6,0,7.4-0.8,9.6-5.4h1l-1.7,6.9H78.4L78.4,67.6z M105.7,59.5h1c1.1,3.4,4.4,7,8.2,7c3.3,0,4.4-2.3,4.4-4.3
	c0-5.9-13.4-7-13.4-14.4c0-3.6,3.5-6.6,7.4-6.6s5.2,1.4,7,1.4c0.7,0,1.2-0.6,1.4-1.4h1v8.2h-1c-1.1-3.7-3.7-6.5-7.2-6.5
	c-2.9,0-4,1.9-4,3.6c0,5.3,13.4,5.4,13.4,14.5c0,4.1-3.3,7.2-8,7.2c-4.6,0-5.7-1.6-7.5-1.6c-0.7,0-1.1,0.4-1.3,1.3h-1.4L105.7,59.5
	L105.7,59.5z"/>
</svg>
