<svg xmlns:x="http://ns.adobe.com/Extensibility/1.0/" xmlns:graph="http://ns.adobe.com/Graphs/1.0/" xmlns="http://www.w3.org/2000/svg" xmlns:xlink="http://www.w3.org/1999/xlink" version="1.1" width="107" height="89" enable-background="new 0 0 319.704 90" xml:space="preserve" style="">
	<rect id="backgroundrect" width="100%" height="100%" x="0" y="0" fill="none" stroke="none"/>
	<g id="svg_3">
		<path fill="#FAFBFB" d="M44.416,88.823c12.603,0,23.995-5.291,32.086-13.754c16.332-0.718,29.359-14.147,29.359-30.659     c0-16.505-13.027-29.934-29.359-30.652C68.411,5.291,57.023,0,44.416,0C19.924,0,0,19.925,0,44.411     C0,68.9,19.924,88.823,44.416,88.823z M59.896,71.067c-0.437,0.018-0.864,0.065-1.307,0.065     c-14.731,0-26.721-11.989-26.721-26.722c0-14.731,11.989-26.72,26.721-26.72c0.442,0,0.874,0.047,1.307,0.07     c-9.241,5.295-15.485,15.238-15.485,26.65C44.411,55.829,50.655,65.769,59.896,71.067z M65.896,15.109     c-2.345-0.586-4.779-0.931-7.307-0.931c-16.669,0-30.233,13.563-30.233,30.232c0,16.671,13.564,30.235,30.233,30.235     c2.522,0,4.962-0.346,7.307-0.925c0.663,0.206,1.346,0.367,2.029,0.526c-5.014,2.869-10.803,4.53-16.98,4.53     c-18.946,0-34.366-15.416-34.366-34.367c0-18.949,15.42-34.365,34.366-34.365c6.183,0,11.967,1.662,16.98,4.53     C67.247,14.741,66.56,14.896,65.896,15.109z M44.416,3.514c7.84,0,15.168,2.224,21.399,6.065c-4.568-1.96-9.592-3.05-14.87-3.05     c-20.885,0-37.879,16.994-37.879,37.882c0,20.89,16.994,37.884,37.879,37.884c5.278,0,10.302-1.09,14.87-3.051     c-6.231,3.843-13.56,6.066-21.399,6.066c-22.554,0-40.897-18.349-40.897-40.9C3.519,21.863,21.862,3.514,44.416,3.514z" id="svg_4"/>
		<g id="svg_5">
			<path fill="#FAFBFB" d="M130.665,35.557c0.886,0.58,1.646,1.304,2.272,2.173l-2.272,1.808l-0.859,0.704      c-0.446-0.654-1.027-1.177-1.744-1.567c-0.72-0.392-1.494-0.587-2.329-0.587c-0.679,0-1.319,0.131-1.919,0.391      c-0.602,0.262-1.125,0.613-1.566,1.06c-0.444,0.442-0.799,0.965-1.059,1.563c-0.262,0.602-0.392,1.24-0.392,1.918v7.441v4.189      h-4.032V42.999v-8.945h4.032v1.503c0.707-0.474,1.475-0.844,2.31-1.109c0.836-0.261,1.712-0.395,2.626-0.395      c0.91,0,1.787,0.134,2.622,0.395C129.189,34.713,129.96,35.083,130.665,35.557z" id="svg_6"/>
			<path fill="#FAFBFB" d="M145.648,45.723h-7.871c0.156,0.704,0.424,1.364,0.803,1.979c0.379,0.611,0.841,1.141,1.389,1.583      c0.551,0.446,1.163,0.791,1.843,1.039c0.679,0.249,1.397,0.374,2.154,0.374c0.911,0,1.77-0.185,2.564-0.55      s1.495-0.876,2.094-1.529h0.746h3.992c-0.155,0.392-0.347,0.765-0.566,1.119c-0.223,0.35-0.466,0.698-0.727,1.035      c-0.94,1.201-2.113,2.161-3.524,2.878c-1.409,0.721-2.936,1.078-4.579,1.078c-1.437,0-2.781-0.27-4.033-0.805      c-1.253-0.532-2.349-1.272-3.29-2.212c-0.938-0.939-1.679-2.036-2.21-3.288c-0.536-1.253-0.805-2.596-0.805-4.035      c0-1.434,0.269-2.778,0.805-4.031c0.531-1.255,1.271-2.351,2.21-3.292c0.941-0.94,2.037-1.676,3.29-2.212      c1.252-0.534,2.597-0.802,4.033-0.802c1.644,0,3.17,0.36,4.579,1.078c1.411,0.719,2.584,1.692,3.524,2.918      c0.863,1.042,1.488,2.269,1.88,3.68c0.236,0.835,0.354,1.72,0.354,2.66c0,0.471-0.038,0.916-0.117,1.333h-4.072H145.648z       M143.966,38.088c-1.281,0-2.421,0.328-3.426,0.987c-1.007,0.66-1.768,1.53-2.291,2.613h9.124h2.309      c-0.129-0.204-0.255-0.412-0.372-0.619c-0.117-0.206-0.241-0.401-0.372-0.583c-0.6-0.748-1.329-1.336-2.192-1.759      C145.885,38.301,144.957,38.088,143.966,38.088z" id="svg_7"/>
			<path fill="#FAFBFB" d="M167.072,34.054c1.434,0,2.782,0.274,4.043,0.823c1.267,0.548,2.374,1.294,3.322,2.234      c0.951,0.939,1.703,2.047,2.249,3.326c0.547,1.28,0.821,2.639,0.821,4.073v10.143h-4.035v-1.899      c-0.885,0.672-1.867,1.202-2.934,1.59c-1.07,0.39-2.222,0.584-3.449,0.584c-1.433,0-2.784-0.274-4.049-0.822      c-1.27-0.548-2.372-1.293-3.312-2.233c-0.94-0.94-1.682-2.043-2.229-3.308c-0.548-1.267-0.823-2.617-0.823-4.054      c0-1.434,0.275-2.792,0.818-4.073c0.549-1.278,1.292-2.386,2.229-3.326c0.94-0.94,2.039-1.686,3.305-2.234      C164.289,34.328,165.641,34.054,167.072,34.054z M167.09,50.893c0.89,0,1.718-0.173,2.49-0.515      c0.768-0.34,1.439-0.8,2.014-1.377c0.575-0.579,1.032-1.254,1.374-2.029c0.337-0.773,0.505-1.596,0.505-2.463      c0-0.892-0.168-1.727-0.505-2.501c-0.342-0.774-0.799-1.45-1.374-2.03c-0.574-0.576-1.246-1.036-2.014-1.376      c-0.772-0.345-1.601-0.513-2.49-0.513c-0.886,0-1.713,0.168-2.485,0.513c-0.771,0.341-1.442,0.801-2.017,1.376      c-0.573,0.581-1.032,1.256-1.37,2.03s-0.51,1.61-0.51,2.501c0,0.867,0.172,1.689,0.51,2.463c0.338,0.775,0.797,1.45,1.37,2.029      c0.574,0.577,1.246,1.037,2.017,1.377C165.377,50.72,166.204,50.893,167.09,50.893z" id="svg_8"/>
			<path fill="#FAFBFB" d="M201.146,44.39c0,1.438-0.268,2.782-0.802,4.035c-0.537,1.252-1.271,2.349-2.212,3.288      s-2.036,1.68-3.292,2.212c-1.253,0.535-2.598,0.805-4.03,0.805c-1.438,0-2.782-0.27-4.036-0.805      c-1.251-0.532-2.349-1.272-3.288-2.212s-1.681-2.036-2.211-3.288c-0.536-1.253-0.803-2.596-0.803-4.035      c0-1.434,0.267-2.778,0.803-4.031c0.53-1.255,1.271-2.351,2.211-3.292c0.939-0.94,2.037-1.676,3.288-2.212      c1.254-0.534,2.598-0.802,4.036-0.802c1.197,0,2.327,0.191,3.386,0.568c1.056,0.379,2.029,0.908,2.915,1.585V20.234h4.035      v24.118V44.39z M190.827,50.698c0.857,0,1.671-0.163,2.438-0.491c0.768-0.325,1.44-0.778,2.011-1.352      c0.571-0.574,1.022-1.246,1.348-2.018c0.325-0.768,0.486-1.583,0.486-2.448v-0.038c0-0.86-0.161-1.668-0.486-2.428      c-0.325-0.754-0.776-1.42-1.348-1.998c-0.57-0.572-1.243-1.022-2.011-1.35c-0.768-0.325-1.581-0.488-2.438-0.488      c-0.859,0-1.673,0.164-2.44,0.488c-0.769,0.328-1.437,0.778-2.011,1.35c-0.57,0.577-1.025,1.249-1.365,2.017      c-0.339,0.771-0.51,1.587-0.51,2.447c0,0.865,0.171,1.68,0.51,2.448c0.34,0.771,0.795,1.443,1.365,2.018      c0.574,0.573,1.242,1.026,2.011,1.352C189.154,50.535,189.968,50.698,190.827,50.698z" id="svg_9"/>
			<path fill="#FAFBFB" d="M216.087,45.723h-7.871c0.157,0.704,0.424,1.364,0.803,1.979c0.381,0.611,0.843,1.141,1.391,1.583      c0.548,0.446,1.164,0.791,1.841,1.039c0.68,0.249,1.397,0.374,2.154,0.374c0.911,0,1.77-0.185,2.565-0.55      c0.794-0.365,1.495-0.876,2.095-1.529h0.744h3.995c-0.158,0.392-0.35,0.765-0.568,1.119c-0.224,0.35-0.465,0.698-0.728,1.035      c-0.938,1.201-2.113,2.161-3.524,2.878c-1.407,0.721-2.934,1.078-4.579,1.078c-1.436,0-2.782-0.27-4.033-0.805      c-1.253-0.532-2.349-1.272-3.288-2.212c-0.941-0.939-1.681-2.036-2.213-3.288c-0.534-1.253-0.803-2.596-0.803-4.035      c0-1.434,0.269-2.778,0.803-4.031c0.532-1.255,1.271-2.351,2.213-3.292c0.939-0.94,2.035-1.676,3.288-2.212      c1.251-0.534,2.598-0.802,4.033-0.802c1.646,0,3.172,0.36,4.579,1.078c1.411,0.719,2.586,1.692,3.524,2.918      c0.864,1.042,1.489,2.269,1.882,3.68c0.234,0.835,0.353,1.72,0.353,2.66c0,0.471-0.039,0.916-0.118,1.333h-4.071H216.087z       M214.404,38.088c-1.28,0-2.421,0.328-3.425,0.987c-1.008,0.66-1.769,1.53-2.291,2.613h9.122h2.312      c-0.131-0.204-0.255-0.412-0.373-0.619c-0.119-0.206-0.243-0.401-0.373-0.583c-0.599-0.748-1.328-1.336-2.191-1.759      C216.323,38.301,215.396,38.088,214.404,38.088z" id="svg_10"/>
			<path fill="#FAFBFB" d="M241.563,35.557c0.887,0.58,1.645,1.304,2.273,2.173l-2.273,1.808l-0.859,0.704      c-0.446-0.654-1.027-1.177-1.744-1.567c-0.719-0.392-1.493-0.587-2.329-0.587c-0.679,0-1.318,0.131-1.918,0.391      c-0.603,0.262-1.125,0.613-1.568,1.06c-0.442,0.442-0.797,0.965-1.058,1.563c-0.261,0.602-0.391,1.24-0.391,1.918v7.441v4.189      h-4.031V42.999v-8.945h4.031v1.503c0.707-0.474,1.475-0.844,2.31-1.109c0.835-0.261,1.71-0.395,2.625-0.395      c0.911,0,1.788,0.134,2.622,0.395C240.09,34.713,240.86,35.083,241.563,35.557z" id="svg_11"/>
			<path fill="#FAFBFB" d="M254.903,33.977c1.438,0,2.781,0.275,4.033,0.823c1.253,0.548,2.35,1.291,3.289,2.229      c0.94,0.94,1.683,2.036,2.231,3.29c0.548,1.255,0.821,2.599,0.821,4.033c0,1.438-0.273,2.78-0.821,4.036      c-0.549,1.251-1.291,2.347-2.231,3.288c-0.939,0.941-2.036,1.682-3.289,2.23c-1.252,0.548-2.596,0.823-4.033,0.823      c-1.201,0-2.337-0.196-3.406-0.588c-1.071-0.392-2.049-0.928-2.938-1.606V68.59h-4.031v-24.2v-0.038      c0-1.434,0.267-2.778,0.802-4.033c0.533-1.253,1.271-2.349,2.212-3.29c0.94-0.939,2.043-1.682,3.308-2.229      C252.118,34.252,253.465,33.977,254.903,33.977z M254.903,50.698c0.86,0,1.676-0.174,2.446-0.512      c0.772-0.337,1.444-0.796,2.018-1.37c0.573-0.573,1.029-1.245,1.371-2.016c0.338-0.771,0.509-1.588,0.509-2.449      c0-0.86-0.171-1.675-0.509-2.446c-0.342-0.771-0.798-1.444-1.371-2.018s-1.245-1.029-2.018-1.371      c-0.771-0.337-1.586-0.509-2.446-0.509c-0.891,0-1.718,0.171-2.486,0.509c-0.771,0.341-1.443,0.797-2.016,1.371      c-0.575,0.574-1.028,1.247-1.353,2.018c-0.327,0.771-0.489,1.586-0.489,2.446v0.038c0,0.865,0.171,1.68,0.51,2.448      c0.34,0.771,0.795,1.443,1.369,2.018c0.574,0.573,1.246,1.026,2.017,1.352C253.227,50.535,254.042,50.698,254.903,50.698z" id="svg_12"/>
			<path fill="#FAFBFB" d="M278.542,34.015c1.434,0,2.778,0.269,4.029,0.803c1.257,0.537,2.353,1.272,3.293,2.211      c0.938,0.94,1.676,2.036,2.211,3.29c0.535,1.255,0.803,2.599,0.803,4.033c0,1.438-0.268,2.78-0.803,4.036      c-0.535,1.251-1.272,2.347-2.211,3.288c-0.94,0.941-2.036,1.676-3.293,2.21c-1.251,0.537-2.596,0.804-4.029,0.804      c-1.438,0-2.783-0.267-4.036-0.804c-1.251-0.534-2.348-1.269-3.288-2.21c-0.938-0.941-1.68-2.037-2.21-3.288      c-0.537-1.256-0.804-2.598-0.804-4.036c0-1.434,0.267-2.778,0.804-4.033c0.53-1.253,1.271-2.349,2.21-3.29      c0.94-0.939,2.037-1.675,3.288-2.211C275.759,34.284,277.104,34.015,278.542,34.015z M278.56,50.655      c0.857,0,1.671-0.162,2.438-0.487c0.768-0.329,1.439-0.777,2.011-1.352c0.573-0.573,1.022-1.245,1.347-2.016      c0.326-0.771,0.489-1.588,0.489-2.449c0-0.86-0.163-1.675-0.489-2.446c-0.324-0.771-0.773-1.444-1.347-2.018      c-0.571-0.574-1.243-1.022-2.011-1.351c-0.768-0.326-1.581-0.488-2.438-0.488c-0.86,0-1.673,0.162-2.439,0.488      c-0.769,0.328-1.438,0.777-2.012,1.351c-0.57,0.574-1.026,1.247-1.364,2.018c-0.342,0.771-0.51,1.586-0.51,2.446      c0,0.861,0.168,1.677,0.51,2.449c0.338,0.771,0.794,1.442,1.364,2.016c0.573,0.574,1.243,1.022,2.012,1.352      C276.887,50.493,277.699,50.655,278.56,50.655z" id="svg_13"/>
			<path fill="#FAFBFB" d="M292.425,20.311h4.034v34.186h-4.034V20.311z" id="svg_14"/>
			<path fill="#FAFBFB" d="M311.991,45.723h-7.872c0.157,0.704,0.424,1.364,0.804,1.979c0.379,0.611,0.841,1.141,1.389,1.583      c0.548,0.446,1.164,0.791,1.842,1.039c0.679,0.249,1.396,0.374,2.154,0.374c0.911,0,1.769-0.185,2.566-0.55      c0.792-0.365,1.493-0.876,2.093-1.529h0.746h3.991c-0.156,0.392-0.346,0.765-0.566,1.119c-0.224,0.35-0.466,0.698-0.727,1.035      c-0.939,1.201-2.112,2.161-3.524,2.878c-1.408,0.721-2.935,1.078-4.579,1.078c-1.437,0-2.783-0.27-4.034-0.805      c-1.253-0.532-2.349-1.272-3.289-2.212c-0.939-0.939-1.68-2.036-2.211-3.288c-0.535-1.253-0.804-2.596-0.804-4.035      c0-1.434,0.269-2.778,0.804-4.031c0.531-1.255,1.271-2.351,2.211-3.292c0.94-0.94,2.036-1.676,3.289-2.212      c1.251-0.534,2.598-0.802,4.034-0.802c1.645,0,3.171,0.36,4.579,1.078c1.412,0.719,2.585,1.692,3.524,2.918      c0.864,1.042,1.488,2.269,1.881,3.68c0.234,0.835,0.353,1.72,0.353,2.66c0,0.471-0.037,0.916-0.118,1.333h-4.071H311.991z       M310.308,38.088c-1.281,0-2.421,0.328-3.426,0.987c-1.006,0.66-1.769,1.53-2.29,2.613h9.122h2.311      c-0.131-0.204-0.255-0.412-0.372-0.619c-0.12-0.206-0.244-0.401-0.374-0.583c-0.598-0.748-1.328-1.336-2.191-1.759      C312.227,38.301,311.299,38.088,310.308,38.088z" id="svg_15"/>
		</g>
	</g>
</svg>