<?xml version="1.0" encoding="utf-8"?>
<!-- Generator: Adobe Illustrator 21.1.0, SVG Export Plug-In . SVG Version: 6.00 Build 0)  -->
<svg version="1.1"
	 id="svg3696" inkscape:version="0.92.0 r15299" sodipodi:docname="logo_nyt_v1_edited.svg" xmlns:cc="http://creativecommons.org/ns#" xmlns:dc="http://purl.org/dc/elements/1.1/" xmlns:inkscape="http://www.inkscape.org/namespaces/inkscape" xmlns:rdf="http://www.w3.org/1999/02/22-rdf-syntax-ns#" xmlns:sodipodi="http://sodipodi.sourceforge.net/DTD/sodipodi-0.dtd" xmlns:svg="http://www.w3.org/2000/svg"
	 xmlns="http://www.w3.org/2000/svg" xmlns:xlink="http://www.w3.org/1999/xlink" x="0px" y="0px" viewBox="0 0 139.1 18.3"
	 style="enable-background:new 0 0 139.1 18.3;" xml:space="preserve">
<style type="text/css">
	.st0{fill:#FFFFFF;}
</style>
<sodipodi:namedview  bordercolor="#ffffff" borderopacity="0" fit-margin-bottom="0" fit-margin-left="0" fit-margin-right="0" fit-margin-top="0" id="base" inkscape:current-layer="layer1" inkscape:cx="84.531278" inkscape:cy="-2.8346481" inkscape:document-units="mm" inkscape:pagecheckerboard="true" inkscape:pageopacity="0.0" inkscape:pageshadow="2" inkscape:showpageshadow="false" inkscape:window-height="838" inkscape:window-maximized="1" inkscape:window-width="1600" inkscape:window-x="-8" inkscape:window-y="-8" inkscape:zoom="44.8" pagecolor="#ffffff" showborder="false" showgrid="false">
	</sodipodi:namedview>
<g id="layer1" transform="translate(-79.785473,-114.60941)" inkscape:groupmode="layer" inkscape:label="Layer 1">
	<path id="path3698" inkscape:connector-curvature="0" class="st0" d="M90.2,116.5c0-1.5-1.4-1.9-2.6-1.9v0.2c0.7,0,1.2,0.3,1.2,0.7
		c0,0.3-0.2,0.7-0.9,0.7c-0.6,0-1.6-0.3-2.5-0.6c-1-0.3-1.9-0.6-2.6-0.6c-1.5,0-2.6,1.1-2.6,2.4c0,1.1,0.8,1.5,1.2,1.6l0.1-0.2
		c-0.2-0.1-0.4-0.3-0.4-0.7c0-0.3,0.3-0.8,1-0.8c0.7,0,1.6,0.3,2.8,0.6c1,0.3,2.2,0.6,2.8,0.6v2.3l-1.2,1v0.1l1.2,1v3.2
		c-0.6,0.3-1.3,0.4-1.9,0.4c-1.1,0-2.1-0.3-3-1.2l3.1-1.5v-5.2l-3.8,1.7c0.4-1,1.2-1.7,2-2.2l-0.1-0.2c-2.2,0.6-4.3,2.7-4.3,5.2
		c0,3.1,2.5,5.3,5.3,5.3c3.1,0,5-2.4,5-4.9l-0.2,0c-0.5,1-1.1,1.9-1.9,2.4v-3.1l1.2-1l0-0.1l-1.2-1v-2.3
		C89.1,118.7,90.2,117.9,90.2,116.5L90.2,116.5z M83.7,124.9l-0.9,0.5c-0.5-0.7-0.9-1.6-0.9-2.9c0-0.5,0.1-1.2,0.2-1.6l1.6-0.7
		L83.7,124.9z M91.7,126.5l-1,0.8l0.1,0.1l0.5-0.3l1.7,1.5l2.3-1.5l-0.1-0.2l-0.6,0.4l-0.7-0.7v-5.2l0.6-0.5l1.3,1v4.6
		c0,2.9-0.6,3.3-1.9,3.8v0.2c2.1,0.1,4.1-0.6,4.1-4.3v-4.9l0.7-0.5l-0.1-0.2l-0.6,0.5l-1.9-1.6l-2.2,1.6v-6.2h-0.2l-2.7,1.8v0.2
		c0.3,0.2,0.7,0.3,0.7,1.2L91.7,126.5z M105.5,125.7l-1.9,1.4l-1.9-1.5v-0.9l3.6-2.4v-0.1l-1.8-2.7l-3.9,2.1v5l-0.8,0.6l0.1,0.2
		l0.7-0.6l2.6,1.9l3.4-2.7L105.5,125.7z M101.7,124.5v-3.7l0.1-0.1l1.7,2.6L101.7,124.5z M120,115.8c0-0.2-0.1-0.4-0.1-0.7h-0.2
		c-0.2,0.6-0.5,1-1.3,1c-0.6,0-1.2-0.4-1.4-0.7c0,0-2.2,2.5-2.2,2.5l0.2,0.2l0.6-0.7c0.5,0.4,0.8,0.7,1.9,0.7v6.3l-4.4-7.7
		c-0.3-0.6-0.9-1.4-2-1.4c-1.2,0-2.3,1-2.1,2.8h0.2c0.1-0.5,0.3-1,0.8-1c0.4,0,0.8,0.4,1,0.8v2.5c-1.4,0-2.3,0.6-2.3,1.7
		c0,0.6,0.3,1.5,1.2,1.7l0-0.2c-0.1-0.1-0.3-0.3-0.3-0.5c0-0.4,0.3-0.7,0.9-0.7c0.1,0,0.3,0,0.4,0v3.2c-1.6,0-2.8,0.9-2.8,2.4
		c0,1.4,1.2,2.1,2.5,2.1l0-0.2c-0.8-0.1-1.2-0.5-1.2-1c0-0.6,0.5-1,1.1-1c0.6,0,1.2,0.4,1.5,0.8l2.2-2.4l-0.2-0.2l-0.6,0.6
		c-0.8-0.7-1.3-1-2.2-1.2V118l6.1,10.6h0.4v-10.6C118.9,118,120,117.1,120,115.8L120,115.8z M125.4,125.7l-1.9,1.4l-1.9-1.5v-0.9
		l3.6-2.4v-0.1l-1.8-2.7l-3.9,2.1v5l-0.8,0.6l0.1,0.2l0.7-0.6l2.6,1.9l3.4-2.7L125.4,125.7L125.4,125.7z M121.6,124.5v-3.7l0.1-0.1
		l1.7,2.6L121.6,124.5z M137.8,120.3l-0.6,0.4l-1.4-1.2l-1.7,1.5l0.7,0.6v5.7l-1.8-1.2v-4.6l0.6-0.4l-1.8-1.6l-1.6,1.5l0.7,0.6v5.4
		l-0.2,0.1l-1.6-1.1v-4.6c0-1-0.5-1.3-1.2-1.8c-0.6-0.3-0.8-0.6-0.8-1.2c0-0.4,0.4-0.7,0.6-0.8c0,0,0-0.2,0-0.2
		c-0.6,0-2.2,0.6-2.2,2.1c0,0.8,0.3,1.1,0.7,1.4c0.4,0.4,0.7,0.7,0.7,1.3v4.4l-0.8,0.6l0.1,0.2l0.7-0.6l2,1.6l1.9-1.3l2.1,1.3l4-2.3
		v-5.1l1-0.7L137.8,120.3L137.8,120.3z M151.8,116.2l-0.8,0.7l-1.7-1.5l-2.5,1.8v-1.7h-0.3l0.1,12.3c-0.3,0-0.9-0.2-1.5-0.3
		l-0.1-10.2c0-0.8-0.5-1.8-1.9-1.8c-1.4,0-2.3,1.1-2.3,2.1h0.2c0.1-0.5,0.3-0.8,0.8-0.8c0.5,0,0.9,0.3,0.9,1.3v3
		c-1.4,0.1-2.2,0.8-2.2,1.8c0,0.6,0.3,1.5,1.2,1.5l0-0.2c-0.3-0.1-0.4-0.3-0.4-0.5c0-0.4,0.4-0.6,1-0.6h0.3v4.7
		c-1.1,0.4-1.6,1.2-1.6,2.1c0,1.3,1,2.2,2.5,2.2c1,0,1.9-0.2,2.9-0.4c0.8-0.2,1.7-0.3,2.2-0.3c0.6,0,0.8,0.3,0.8,0.7
		c0,0.5-0.2,0.7-0.5,0.8l0,0.2c1.2-0.2,2-1,2-2.1c0-1.2-1.1-1.8-2.3-1.8c-0.6,0-1.9,0.2-2.8,0.4c-1,0.2-2.1,0.3-2.4,0.3
		c-0.5,0-1.2-0.3-1.2-1c0-0.6,0.5-1.1,1.8-1.1c0.7,0,1.5,0.1,2.4,0.3c0.9,0.2,1.7,0.5,2.5,0.5c1.1,0,2.1-0.4,2.1-2v-9.3l0.9-0.8
		L151.8,116.2z M148.7,120.8c-0.2,0.2-0.5,0.4-0.9,0.4c-0.4,0-0.7-0.3-0.9-0.4v-3.4l0.8-0.5l1,1V120.8z M148.7,123.1
		c-0.2-0.2-0.5-0.4-0.9-0.4c-0.4,0-0.8,0.2-0.9,0.4v-2c0.2,0.1,0.5,0.4,0.9,0.4c0.4,0,0.7-0.2,0.9-0.4V123.1z M148.7,126.6
		c0,0.6-0.4,1.2-1.2,1.2c-0.1,0-0.5,0-0.6,0v-4.4c0.2-0.2,0.5-0.4,0.9-0.4c0.4,0,0.7,0.2,0.9,0.4V126.6z M159.1,121.3l-2.4-1.7
		l-3.7,2.1v4.9l-0.8,0.6l0.1,0.2l0.6-0.5l2.4,1.8l3.7-2.3L159.1,121.3z M155,126v-5.4l1.9,1.4v5.4L155,126z M166.3,119.7
		c0,0-0.1,0-0.1,0c-0.2,0.2-0.5,0.3-0.7,0.3c-0.3,0-0.7-0.2-0.8-0.4h-0.1l-1.3,1.4l-1.3-1.4l-2.2,1.5l0.1,0.2l0.6-0.4l0.8,0.8v4.8
		l-1,0.8l0.1,0.1l0.5-0.3l1.8,1.5l2.4-1.6l-0.1-0.2l-0.7,0.4l-0.9-0.8v-5.3c0.4,0.4,0.8,0.8,1.4,0.8
		C165.6,122,166.2,120.9,166.3,119.7L166.3,119.7z M175.4,127l-2.6,1.7l-3.5-5.3l2.5-3.8l0.2,0c0.3,0.3,0.8,0.6,1.3,0.6
		c0.5,0,0.9-0.3,1.1-0.6c0,0,0.1,0,0.1,0c-0.1,1.5-1.1,2.4-1.9,2.4c-0.8,0-1.2-0.4-1.6-0.6l-0.2,0.3l3.8,5.6l0.8-0.5L175.4,127z
		 M167,126.5l-1,0.8l0.1,0.1l0.5-0.3l1.7,1.5l2.3-1.5l-0.1-0.2l-0.6,0.4l-0.7-0.7v-11.7H169l-2.7,1.8v0.2c0.3,0.2,0.8,0.2,0.8,1.2
		L167,126.5z M187.9,116.5c0-1.5-1.4-1.9-2.6-1.9v0.2c0.7,0,1.2,0.3,1.2,0.7c0,0.3-0.2,0.7-0.9,0.7c-0.6,0-1.6-0.3-2.5-0.6
		c-1-0.3-1.9-0.6-2.6-0.6c-1.5,0-2.6,1.1-2.6,2.4c0,1.1,0.8,1.5,1.2,1.6l0.1-0.2c-0.2-0.1-0.4-0.3-0.4-0.7c0-0.3,0.3-0.8,1-0.8
		c0.7,0,1.6,0.3,2.8,0.6c1,0.3,2.2,0.6,2.8,0.6v2.3l-1.2,1v0.1l1.2,1v3.2c-0.6,0.3-1.3,0.4-1.9,0.4c-1.1,0-2.1-0.3-3-1.2l3.1-1.5
		v-5.2l-3.8,1.7c0.4-1,1.2-1.7,2-2.2l-0.1-0.2c-2.3,0.6-4.3,2.7-4.3,5.2c0,3.1,2.5,5.3,5.3,5.3c3.1,0,5-2.4,5-4.9l-0.2,0
		c-0.5,1-1.1,1.9-1.9,2.4v-3.1l1.2-1l0-0.1l-1.2-1v-2.3C186.7,118.7,187.9,117.9,187.9,116.5L187.9,116.5z M181.3,124.9l-0.9,0.5
		c-0.5-0.7-0.9-1.6-0.9-2.9c0-0.5,0.1-1.2,0.2-1.6l1.6-0.7L181.3,124.9L181.3,124.9z M190.5,115.8l-0.1,0l-1.5,1.3v0.1l1.3,1.4h0.1
		l1.5-1.3l0-0.1L190.5,115.8L190.5,115.8z M192.8,127l-0.6,0.4l-0.7-0.7v-5.2l0.7-0.5l-0.1-0.2l-0.6,0.4l-1.3-1.6L188,121l0.1,0.2
		l0.5-0.4l0.7,0.8v4.9l-1,0.7l0.1,0.1l0.5-0.4l1.7,1.5l2.3-1.5L192.8,127z M205.4,126.9l-0.5,0.4l-0.8-0.7v-5.1l0.8-0.6l-0.1-0.2
		l-0.7,0.5l-1.7-1.6l-2.2,1.6l-1.7-1.6l-2.2,1.6l-1.3-1.6l-2.2,1.5l0.1,0.2l0.5-0.4l0.7,0.8v4.9l-0.6,0.6l1.7,1.5l1.7-1.5l-0.7-0.6
		v-5.1l0.6-0.4l1.2,1.1v4.6l-0.6,0.6l1.7,1.5l1.6-1.5l-0.7-0.6v-5.1l0.6-0.4l1.2,1.1v4.5l-0.5,0.5l1.8,1.6l2.3-1.6L205.4,126.9z
		 M212,125.7l-1.9,1.4l-1.9-1.5v-0.9l3.6-2.4v-0.1l-1.8-2.7l-3.9,2.1v5.1l2.6,1.9l3.4-2.7L212,125.7z M208.2,124.5v-3.7l0.1-0.1
		l1.7,2.6L208.2,124.5z M218.9,123.8l-1.5-1.1c1-0.8,1.4-2,1.4-2.8c0-0.1,0-0.3,0-0.5h-0.2c-0.1,0.4-0.4,0.7-1,0.7
		c-0.6,0-1-0.3-1.3-0.7l-3.4,1.9v2.8l1.3,1c-1.3,1.1-1.5,1.9-1.5,2.5c0,0.8,0.3,1.3,1,1.5l0.1-0.2c-0.2-0.1-0.3-0.2-0.3-0.6
		c0-0.3,0.3-0.6,0.9-0.6c0.7,0,1.2,0.5,1.4,0.8c0,0,3.3-2,3.3-2L218.9,123.8z M218.1,121.5c-0.5,0.9-1.7,1.8-2.3,2.3l-0.8-0.6v-2.7
		c0.3,0.7,1.1,1.3,2,1.3C217.4,121.8,217.7,121.7,218.1,121.5z M216.7,127.5c-0.4-0.8-1.3-1.5-2.2-1.5c-0.2,0-0.8,0-1.4,0.4
		c0.3-0.6,1.4-1.7,2.6-2.4l0.9,0.7V127.5z"/>
</g>
</svg>
