<?xml version="1.0" encoding="utf-8"?>
<!-- Generator: Adobe Illustrator 21.1.0, SVG Export Plug-In . SVG Version: 6.00 Build 0)  -->
<svg version="1.1"
	 id="svg3696" inkscape:version="0.92.0 r15299" sodipodi:docname="logo_nyt_v1_edited.svg" xmlns:cc="http://creativecommons.org/ns#" xmlns:dc="http://purl.org/dc/elements/1.1/" xmlns:inkscape="http://www.inkscape.org/namespaces/inkscape" xmlns:rdf="http://www.w3.org/1999/02/22-rdf-syntax-ns#" xmlns:sodipodi="http://sodipodi.sourceforge.net/DTD/sodipodi-0.dtd" xmlns:svg="http://www.w3.org/2000/svg"
	 xmlns="http://www.w3.org/2000/svg" xmlns:xlink="http://www.w3.org/1999/xlink" x="0px" y="0px" viewBox="0 0 10.5 14"
	 style="enable-background:new 0 0 10.5 14;" xml:space="preserve">
<style type="text/css">
	.st0{fill:#FFFFFF;}
</style>
<path class="st0" d="M10.5,1.9L10.5,1.9C10.5,0.4,9.1,0,7.9,0v0.2c0.7,0,1.2,0.3,1.2,0.7c0,0.3-0.2,0.7-0.9,0.7
	C7.6,1.6,6.6,1.3,5.7,1c-1-0.3-1.9-0.6-2.6-0.6c-1.5,0-2.6,1.1-2.6,2.4c0,1.1,0.8,1.5,1.2,1.6l0.1-0.2C1.6,4.1,1.4,3.9,1.4,3.5
	c0-0.3,0.3-0.8,1-0.8S4,3,5.2,3.3c1,0.3,2.2,0.6,2.8,0.6v2.3l-1.2,1v0.1l1.2,1v3.2c-0.6,0.3-1.3,0.4-1.9,0.4c-1.1,0-2.1-0.3-3-1.2
	l3.1-1.5v-5L2.4,5.9c0.4-1,1.2-1.7,2-2.2L4.3,3.5C2.1,4.1,0,6.2,0,8.7C0,11.8,2.5,14,5.3,14c3.1,0,5-2.4,5-4.9h-0.2
	c-0.5,1-1.1,1.9-1.9,2.4V8.4l1.2-1V7.3l-1.2-1V4C9.3,4,10.5,3.3,10.5,1.9z M2.1,7.8c0-0.5,0.1-1.2,0.2-1.6l1.6-0.7v4.8L3,10.8
	C2.5,10,2.1,9.1,2.1,7.8z"/>
</svg>
