<?xml version="1.0" encoding="utf-8"?>
<!-- Generator: Adobe Illustrator 21.1.0, SVG Export Plug-In . SVG Version: 6.00 Build 0)  -->
<svg version="1.1"
	 id="svg3696" inkscape:version="0.92.0 r15299" sodipodi:docname="logo_nyt_v1_edited.svg" xmlns:cc="http://creativecommons.org/ns#" xmlns:dc="http://purl.org/dc/elements/1.1/" xmlns:inkscape="http://www.inkscape.org/namespaces/inkscape" xmlns:rdf="http://www.w3.org/1999/02/22-rdf-syntax-ns#" xmlns:sodipodi="http://sodipodi.sourceforge.net/DTD/sodipodi-0.dtd" xmlns:svg="http://www.w3.org/2000/svg"
	 xmlns="http://www.w3.org/2000/svg" xmlns:xlink="http://www.w3.org/1999/xlink" x="0px" y="0px" viewBox="0 0 139.1 18.3"
	 style="enable-background:new 0 0 139.1 18.3;" xml:space="preserve">
<style type="text/css">
	.st0{fill:#FFFFFF;}
</style>
<path class="st0" d="M71.4,4L71.4,4c0-1.5-1.4-1.9-2.6-1.9v0.2C69.5,2.3,70,2.6,70,3c0,0.3-0.2,0.7-0.9,0.7c-0.6,0-1.6-0.3-2.5-0.6
	c-1-0.3-1.9-0.6-2.6-0.6c-1.5,0-2.6,1.1-2.6,2.4c0,1.1,0.8,1.5,1.2,1.6l0.1-0.2c-0.2-0.1-0.4-0.3-0.4-0.7c0-0.3,0.3-0.8,1-0.8
	c0.7,0,1.6,0.3,2.8,0.6c1,0.3,2.2,0.6,2.8,0.6v2.3l-1.2,1v0.1l1.2,1v3.2c-0.6,0.3-1.3,0.4-1.9,0.4c-1.1,0-2.1-0.3-3-1.2l3.1-1.5V6.3
	L63.3,8c0.4-1,1.2-1.7,2-2.2l-0.1-0.2c-2.2,0.6-4.3,2.7-4.3,5.2c0,3.1,2.5,5.3,5.3,5.3c3.1,0,5-2.4,5-4.9l-0.2,0
	c-0.5,1-1.1,1.9-1.9,2.4v-3.1l1.2-1l0-0.1l-1.2-1V6.1C70.2,6.1,71.4,5.4,71.4,4z M63,9.9c0-0.5,0.1-1.2,0.2-1.6l1.6-0.7l0,4.8
	l-0.9,0.5C63.4,12.1,63,11.2,63,9.9z"/>
</svg>
