<svg id="Layer_1" data-name="Layer 1" xmlns="http://www.w3.org/2000/svg" viewBox="0 0 738.58 204.6"><defs><style>.cls-1{fill:#ec7c5d;}</style></defs><title>readerpolelogoorange</title><path class="cls-1" d="M233.31,493a102,102,0,0,0,73.91-31.68,70.68,70.68,0,0,0,0-141.22A102.27,102.27,0,1,0,233.31,493ZM269,452.05c-1,0-2,.15-3,.15a61.55,61.55,0,1,1,0-123.1c1,0,2,.11,3,.16a70.67,70.67,0,0,0,0,122.79Zm13.82-128.9A69.61,69.61,0,1,0,266,460.29a70,70,0,0,0,16.83-2.13c1.53.48,3.1.85,4.67,1.21a79.16,79.16,0,1,1,0-137.45C285.9,322.31,284.31,322.67,282.79,323.16Zm-49.48-26.71a93.62,93.62,0,0,1,49.29,14,87.26,87.26,0,1,0,0,160.47,94.19,94.19,0,1,1-49.29-174.44Z" transform="translate(-131 -288.36)"/><path class="cls-1" d="M432,370.26a19.74,19.74,0,0,1,5.23,5L432,379.43l-2,1.62a11.38,11.38,0,0,0-4-3.61,11.3,11.3,0,0,0-9.78-.45,11.45,11.45,0,0,0-6,6,11,11,0,0,0-.9,4.42v26.79H400V366.8h9.29v3.46a20.71,20.71,0,0,1,5.32-2.55,20.55,20.55,0,0,1,12.09,0A20.6,20.6,0,0,1,432,370.26Z" transform="translate(-131 -288.36)"/><path class="cls-1" d="M466.49,393.68H448.36a14.66,14.66,0,0,0,1.85,4.56,14.41,14.41,0,0,0,3.2,3.65,14.58,14.58,0,0,0,4.24,2.39,14.28,14.28,0,0,0,5,.86,14.06,14.06,0,0,0,5.91-1.26,15,15,0,0,0,4.82-3.52h10.91a16.25,16.25,0,0,1-1.31,2.58c-.51.81-1.07,1.61-1.67,2.39a23.92,23.92,0,0,1-8.12,6.63,22.81,22.81,0,0,1-10.55,2.48,23.39,23.39,0,0,1-9.29-1.85,23.74,23.74,0,0,1-12.67-12.67,24.25,24.25,0,0,1,0-18.58,23.72,23.72,0,0,1,12.67-12.67,23.39,23.39,0,0,1,9.29-1.85,22.93,22.93,0,0,1,10.55,2.48,23.6,23.6,0,0,1,8.12,6.72,23.21,23.21,0,0,1,5.14,14.61,16.17,16.17,0,0,1-.27,3.07H466.49Zm-3.87-17.59a14,14,0,0,0-7.89,2.27,14.7,14.7,0,0,0-5.28,6h26.33c-.3-.47-.59-.95-.86-1.42a14.36,14.36,0,0,0-.86-1.34,14.66,14.66,0,0,0-5-4.05A14.22,14.22,0,0,0,462.61,376.09Z" transform="translate(-131 -288.36)"/><path class="cls-1" d="M515.83,366.8a23.12,23.12,0,0,1,9.32,1.89,24.75,24.75,0,0,1,7.65,5.15,24,24,0,0,1,7.07,17v23.36h-9.29v-4.38a25.55,25.55,0,0,1-6.76,3.66,24,24,0,0,1-17.27-.55,24.08,24.08,0,0,1-12.76-12.76,23.2,23.2,0,0,1-1.9-9.34,23.72,23.72,0,0,1,1.89-9.38,24,24,0,0,1,12.74-12.81A23.11,23.11,0,0,1,515.83,366.8Zm0,38.78a14,14,0,0,0,5.73-1.18,15.07,15.07,0,0,0,7.8-7.85,14.05,14.05,0,0,0,1.17-5.67,14.28,14.28,0,0,0-1.17-5.76,15.07,15.07,0,0,0-7.8-7.85,14.5,14.5,0,0,0-11.46,0,15,15,0,0,0-7.8,7.85,14.28,14.28,0,0,0-1.17,5.76,14.06,14.06,0,0,0,1.17,5.67,15.21,15.21,0,0,0,3.16,4.67,15.06,15.06,0,0,0,4.65,3.17A14,14,0,0,0,515.88,405.58Z" transform="translate(-131 -288.36)"/><path class="cls-1" d="M594.32,390.61a23.38,23.38,0,0,1-1.85,9.29,23.72,23.72,0,0,1-12.68,12.67,24.23,24.23,0,0,1-18.58,0,23.75,23.75,0,0,1-12.67-12.67,24.26,24.26,0,0,1,0-18.58,23.74,23.74,0,0,1,12.67-12.67,23.4,23.4,0,0,1,9.29-1.85,23.13,23.13,0,0,1,7.8,1.31,24.75,24.75,0,0,1,6.71,3.65V335h9.3v55.64Zm-23.77,14.53a14.13,14.13,0,0,0,5.62-1.13,14.49,14.49,0,0,0,8.86-13.4v-.09a14,14,0,0,0-1.12-5.59,14.76,14.76,0,0,0-3.1-4.6,14.51,14.51,0,0,0-4.63-3.11,14.62,14.62,0,0,0-11.24,0,14.57,14.57,0,0,0-4.63,3.11,15.36,15.36,0,0,0-3.14,4.64,14.14,14.14,0,0,0,0,11.27,15.17,15.17,0,0,0,3.14,4.65,14.42,14.42,0,0,0,4.63,3.11A14.13,14.13,0,0,0,570.56,405.13Z" transform="translate(-131 -288.36)"/><path class="cls-1" d="M628.74,393.68H610.61a14.72,14.72,0,0,0,1.85,4.56,14.51,14.51,0,0,0,7.44,6,14.29,14.29,0,0,0,5,.86,14.08,14.08,0,0,0,5.91-1.26,15.06,15.06,0,0,0,4.82-3.52h10.91a16.35,16.35,0,0,1-1.31,2.58c-.51.81-1.07,1.61-1.67,2.39a23.88,23.88,0,0,1-8.12,6.63,22.79,22.79,0,0,1-10.55,2.48,23.41,23.41,0,0,1-9.29-1.85A23.77,23.77,0,0,1,602.9,399.9a24.21,24.21,0,0,1,0-18.58,23.75,23.75,0,0,1,12.67-12.67,23.41,23.41,0,0,1,9.29-1.85,22.91,22.91,0,0,1,10.55,2.48,23.57,23.57,0,0,1,8.12,6.72,23.2,23.2,0,0,1,5.15,14.61,16.41,16.41,0,0,1-.27,3.07H628.74Zm-3.88-17.59a14,14,0,0,0-7.89,2.27,14.7,14.7,0,0,0-5.28,6H638c-.3-.47-.59-.95-.86-1.42a15.17,15.17,0,0,0-.86-1.34,14.68,14.68,0,0,0-5-4.05A14.23,14.23,0,0,0,624.86,376.09Z" transform="translate(-131 -288.36)"/><path class="cls-1" d="M687.42,370.26a19.74,19.74,0,0,1,5.23,5l-5.23,4.16-2,1.62a11.38,11.38,0,0,0-4-3.61,11.31,11.31,0,0,0-9.79-.45,11.45,11.45,0,0,0-6,6,11,11,0,0,0-.9,4.42v26.79h-9.29V366.8h9.29v3.46a20.69,20.69,0,0,1,5.32-2.55,20.55,20.55,0,0,1,12.09,0A20.56,20.56,0,0,1,687.42,370.26Z" transform="translate(-131 -288.36)"/><path class="cls-1" d="M718.15,366.62a22.92,22.92,0,0,1,9.29,1.89,24.31,24.31,0,0,1,12.71,12.71,23.76,23.76,0,0,1,0,18.59,24.31,24.31,0,0,1-12.71,12.71,22.88,22.88,0,0,1-9.29,1.9,22.63,22.63,0,0,1-7.85-1.35,25.6,25.6,0,0,1-6.77-3.7v37h-9.29V390.52a23.47,23.47,0,0,1,1.85-9.29,23.76,23.76,0,0,1,5.09-7.57,24.39,24.39,0,0,1,7.62-5.14A23.26,23.26,0,0,1,718.15,366.62Zm0,38.52a13.9,13.9,0,0,0,5.64-1.18,15,15,0,0,0,4.65-3.16,15.22,15.22,0,0,0,3.16-4.65,14.11,14.11,0,0,0,0-11.28,15,15,0,0,0-7.8-7.8,13.9,13.9,0,0,0-5.64-1.17,14.07,14.07,0,0,0-5.73,1.17,15.13,15.13,0,0,0-4.64,3.16,14.52,14.52,0,0,0-4.24,10.28v.09a13.84,13.84,0,0,0,1.17,5.64,15.14,15.14,0,0,0,3.16,4.65,14.41,14.41,0,0,0,4.65,3.11A14.23,14.23,0,0,0,718.15,405.13Z" transform="translate(-131 -288.36)"/><path class="cls-1" d="M772.6,366.71a23.36,23.36,0,0,1,9.28,1.85,23.73,23.73,0,0,1,12.68,12.67,24.27,24.27,0,0,1,0,18.59,23.73,23.73,0,0,1-12.68,12.67,24.25,24.25,0,0,1-18.58,0,23.75,23.75,0,0,1-12.67-12.67,24.27,24.27,0,0,1,0-18.59,23.75,23.75,0,0,1,12.67-12.67A23.4,23.4,0,0,1,772.6,366.71Zm0,38.33a14.27,14.27,0,0,0,5.62-1.12,14.4,14.4,0,0,0,7.73-7.76,14.6,14.6,0,0,0-3.1-15.92,14.5,14.5,0,0,0-4.63-3.11,14.61,14.61,0,0,0-11.24,0,14.58,14.58,0,0,0-4.63,3.11,15.14,15.14,0,0,0-3.14,4.65,14.13,14.13,0,0,0,0,11.28,15.15,15.15,0,0,0,3.14,4.65,14.61,14.61,0,0,0,4.63,3.11A14.27,14.27,0,0,0,772.64,405Z" transform="translate(-131 -288.36)"/><path class="cls-1" d="M804.58,335.14h9.29v78.74h-9.29Z" transform="translate(-131 -288.36)"/><path class="cls-1" d="M849.64,393.68H831.52a14.69,14.69,0,0,0,1.85,4.56,14.39,14.39,0,0,0,3.2,3.65,14.55,14.55,0,0,0,4.24,2.39,14.26,14.26,0,0,0,5,.86,14.08,14.08,0,0,0,5.91-1.26,15.07,15.07,0,0,0,4.82-3.52h10.91a16.36,16.36,0,0,1-1.31,2.58c-.51.81-1.07,1.61-1.67,2.39a23.88,23.88,0,0,1-8.12,6.63,22.8,22.8,0,0,1-10.55,2.48,23.42,23.42,0,0,1-9.29-1.85,23.75,23.75,0,0,1-12.67-12.67,24.23,24.23,0,0,1,0-18.58,23.73,23.73,0,0,1,12.67-12.67,23.42,23.42,0,0,1,9.29-1.85,22.91,22.91,0,0,1,10.55,2.48,23.57,23.57,0,0,1,8.12,6.72,23.21,23.21,0,0,1,5.14,14.61,16.28,16.28,0,0,1-.27,3.07H849.64Zm-3.87-17.59a14,14,0,0,0-7.89,2.27,14.71,14.71,0,0,0-5.28,6h26.34c-.3-.47-.59-.95-.86-1.42a15.82,15.82,0,0,0-.86-1.34,14.65,14.65,0,0,0-5-4.05A14.22,14.22,0,0,0,845.77,376.09Z" transform="translate(-131 -288.36)"/></svg>