<?xml version="1.0" encoding="utf-8"?>
<!-- Generator: Adobe Illustrator 21.1.0, SVG Export Plug-In . SVG Version: 6.00 Build 0)  -->
<svg version="1.1" id="Layer_1" xmlns="http://www.w3.org/2000/svg" xmlns:xlink="http://www.w3.org/1999/xlink" x="0px" y="0px"
	 viewBox="0 0 512 512" style="enable-background:new 0 0 512 512;" xml:space="preserve">
<style type="text/css">
	.st0{fill:#EC7C5D;}
</style>
<path class="st0" d="M247,336c24.4,0,46.5-10.2,62.1-26.6C340.8,308,366,282,366,250c0-32-25.2-58-56.9-59.4
	C293.5,174.2,271.4,164,247,164c-47.4,0-86,38.6-86,86C161,297.4,199.6,336,247,336 M277,301.6c-0.8,0-1.7,0.1-2.5,0.1
	c-28.5,0-51.8-23.2-51.8-51.8c0-28.5,23.2-51.7,51.8-51.7c0.9,0,1.7,0.1,2.5,0.1c-17.9,10.3-30,29.5-30,51.6
	C247,272.1,259.1,291.4,277,301.6 M288.6,193.3c-4.5-1.1-9.3-1.8-14.2-1.8c-32.3,0-58.6,26.3-58.6,58.6c0,32.3,26.3,58.6,58.6,58.6
	c4.9,0,9.6-0.7,14.2-1.8c1.3,0.4,2.6,0.7,3.9,1c-9.7,5.6-20.9,8.8-32.9,8.8c-36.7,0-66.6-29.9-66.6-66.6c0-36.7,29.9-66.6,66.6-66.6
	c12,0,23.2,3.2,32.9,8.8C291.2,192.5,289.9,192.8,288.6,193.3 M247,170.8c15.2,0,29.4,4.3,41.4,11.7c-8.8-3.8-18.6-5.9-28.8-5.9
	c-40.5,0-73.4,32.9-73.4,73.4c0,40.5,32.9,73.4,73.4,73.4c10.2,0,19.9-2.1,28.8-5.9c-12.1,7.4-26.3,11.8-41.4,11.8
	c-43.7,0-79.2-35.5-79.2-79.2C167.8,206.3,203.3,170.8,247,170.8"/>
</svg>
