<svg id="Layer_1" data-name="Layer 1" xmlns="http://www.w3.org/2000/svg" viewBox="0 0 493.21 136.63"><defs><style>.cls-1{fill:#fafafa;}</style></defs><title>readerpolelogowhite</title><path class="cls-1" d="M334.11,424a68.13,68.13,0,0,0,49.35-21.16,47.2,47.2,0,0,0,0-94.31A68.29,68.29,0,1,0,334.11,424Zm23.81-27.31c-.67,0-1.33.1-2,.1a41.1,41.1,0,1,1,0-82.2c.68,0,1.34.07,2,.11a47.19,47.19,0,0,0,0,82Zm9.23-86.07a46.48,46.48,0,1,0-11.24,91.58,46.74,46.74,0,0,0,11.24-1.42c1,.32,2.07.57,3.12.81a52.86,52.86,0,1,1,0-91.78C369.23,310,368.17,310.27,367.15,310.6Zm-33-17.84A62.52,62.52,0,0,1,367,302.09a58.27,58.27,0,1,0,0,107.16,62.9,62.9,0,1,1-32.91-116.49Z" transform="translate(-265.79 -287.36)"/><path class="cls-1" d="M466.78,342a13.18,13.18,0,0,1,3.5,3.34l-3.5,2.78-1.32,1.08a7.6,7.6,0,0,0-2.68-2.41,7.55,7.55,0,0,0-6.53-.3,7.65,7.65,0,0,0-4,4,7.32,7.32,0,0,0-.6,3v17.89h-6.2V339.74h6.2V342a13.83,13.83,0,0,1,3.55-1.71,13.72,13.72,0,0,1,8.07,0A13.75,13.75,0,0,1,466.78,342Z" transform="translate(-265.79 -287.36)"/><path class="cls-1" d="M489.82,357.69H477.72a9.79,9.79,0,0,0,1.23,3,9.62,9.62,0,0,0,2.14,2.44,9.73,9.73,0,0,0,2.83,1.6,9.54,9.54,0,0,0,3.31.57,9.39,9.39,0,0,0,3.94-.84,10,10,0,0,0,3.22-2.35h7.29a10.85,10.85,0,0,1-.87,1.72c-.34.54-.72,1.07-1.12,1.59a16,16,0,0,1-5.42,4.43,15.23,15.23,0,0,1-7,1.66,15.62,15.62,0,0,1-6.2-1.24,15.85,15.85,0,0,1-8.46-8.46,16.19,16.19,0,0,1,0-12.41A15.84,15.84,0,0,1,481,341a15.62,15.62,0,0,1,6.2-1.23,15.31,15.31,0,0,1,7,1.66,15.76,15.76,0,0,1,5.42,4.49,15.5,15.5,0,0,1,3.43,9.75,10.8,10.8,0,0,1-.18,2H489.82Zm-2.59-11.74a9.37,9.37,0,0,0-5.27,1.52,9.82,9.82,0,0,0-3.52,4H496c-.2-.31-.39-.63-.57-1a9.59,9.59,0,0,0-.57-.9,9.79,9.79,0,0,0-3.37-2.7A9.49,9.49,0,0,0,487.24,345.94Z" transform="translate(-265.79 -287.36)"/><path class="cls-1" d="M522.78,339.74A15.44,15.44,0,0,1,529,341a16.53,16.53,0,0,1,5.11,3.44,16,16,0,0,1,4.72,11.38v15.6h-6.21V368.5a17.06,17.06,0,0,1-4.51,2.45,16,16,0,0,1-11.53-.37,16.08,16.08,0,0,1-8.52-8.52,15.49,15.49,0,0,1-1.27-6.24,15.84,15.84,0,0,1,1.26-6.26,16,16,0,0,1,8.51-8.55A15.43,15.43,0,0,1,522.78,339.74Zm0,25.9a9.35,9.35,0,0,0,3.83-.79,10.06,10.06,0,0,0,5.21-5.24,9.38,9.38,0,0,0,.78-3.79,9.54,9.54,0,0,0-.78-3.85,10.06,10.06,0,0,0-5.21-5.24,9.68,9.68,0,0,0-7.65,0,10,10,0,0,0-5.21,5.24,9.54,9.54,0,0,0-.78,3.85,9.39,9.39,0,0,0,.78,3.79,10.16,10.16,0,0,0,2.11,3.12,10.05,10.05,0,0,0,3.1,2.12A9.34,9.34,0,0,0,522.81,365.64Z" transform="translate(-265.79 -287.36)"/><path class="cls-1" d="M575.19,355.64a15.61,15.61,0,0,1-1.24,6.2,15.84,15.84,0,0,1-8.46,8.46,16.18,16.18,0,0,1-12.41,0,15.86,15.86,0,0,1-8.46-8.46,16.2,16.2,0,0,1,0-12.41,15.85,15.85,0,0,1,8.46-8.46,15.63,15.63,0,0,1,6.2-1.23,15.44,15.44,0,0,1,5.21.87A16.53,16.53,0,0,1,569,343V318.48h6.21v37.16Zm-15.87,9.7a9.44,9.44,0,0,0,3.75-.76,9.68,9.68,0,0,0,5.91-8.95v-.06a9.36,9.36,0,0,0-.75-3.74,9.86,9.86,0,0,0-2.07-3.07,9.69,9.69,0,0,0-3.09-2.08,9.76,9.76,0,0,0-7.5,0,9.73,9.73,0,0,0-3.09,2.08,10.26,10.26,0,0,0-2.1,3.1,9.44,9.44,0,0,0,0,7.53,10.13,10.13,0,0,0,2.1,3.1,9.63,9.63,0,0,0,3.09,2.08A9.44,9.44,0,0,0,559.32,365.34Z" transform="translate(-265.79 -287.36)"/><path class="cls-1" d="M598.17,357.69H586.07a9.83,9.83,0,0,0,1.23,3,9.69,9.69,0,0,0,5,4,9.54,9.54,0,0,0,3.31.57,9.4,9.4,0,0,0,3.95-.84,10.06,10.06,0,0,0,3.22-2.35H610a10.92,10.92,0,0,1-.87,1.72c-.34.54-.71,1.07-1.12,1.59a15.94,15.94,0,0,1-5.42,4.43,15.22,15.22,0,0,1-7,1.66,15.63,15.63,0,0,1-6.2-1.24,15.87,15.87,0,0,1-8.46-8.46,16.17,16.17,0,0,1,0-12.41,15.86,15.86,0,0,1,8.46-8.46,15.63,15.63,0,0,1,6.2-1.23,15.3,15.3,0,0,1,7,1.66,15.74,15.74,0,0,1,5.42,4.49,15.49,15.49,0,0,1,3.44,9.75,11,11,0,0,1-.18,2H598.17Zm-2.59-11.74a9.36,9.36,0,0,0-5.27,1.52,9.82,9.82,0,0,0-3.52,4h17.59c-.2-.31-.39-.63-.57-1a10.13,10.13,0,0,0-.57-.9,9.8,9.8,0,0,0-3.37-2.7A9.5,9.5,0,0,0,595.58,345.94Z" transform="translate(-265.79 -287.36)"/><path class="cls-1" d="M637.36,342a13.18,13.18,0,0,1,3.49,3.34l-3.49,2.78L636,349.25a7.6,7.6,0,0,0-2.68-2.41,7.55,7.55,0,0,0-6.54-.3,7.65,7.65,0,0,0-4,4,7.32,7.32,0,0,0-.6,3v17.89H616V339.74h6.2V342a13.82,13.82,0,0,1,3.55-1.71,13.72,13.72,0,0,1,8.07,0A13.73,13.73,0,0,1,637.36,342Z" transform="translate(-265.79 -287.36)"/><path class="cls-1" d="M657.88,339.62a15.31,15.31,0,0,1,6.2,1.26,16.24,16.24,0,0,1,8.49,8.49,15.87,15.87,0,0,1,0,12.41,16.23,16.23,0,0,1-8.49,8.49,15.28,15.28,0,0,1-6.2,1.27,15.11,15.11,0,0,1-5.24-.9,17.09,17.09,0,0,1-4.52-2.47v24.69h-6.2V355.58a15.67,15.67,0,0,1,1.23-6.21,15.86,15.86,0,0,1,3.4-5.06,16.29,16.29,0,0,1,5.09-3.43A15.53,15.53,0,0,1,657.88,339.62Zm0,25.72a9.28,9.28,0,0,0,3.76-.79,10,10,0,0,0,3.1-2.11,10.16,10.16,0,0,0,2.11-3.1,9.42,9.42,0,0,0,0-7.53,10,10,0,0,0-5.21-5.21,9.28,9.28,0,0,0-3.76-.78,9.4,9.4,0,0,0-3.82.78,10.1,10.1,0,0,0-3.1,2.11,9.69,9.69,0,0,0-2.83,6.87v.06a9.24,9.24,0,0,0,.78,3.76,10.11,10.11,0,0,0,2.11,3.1,9.63,9.63,0,0,0,3.1,2.08A9.5,9.5,0,0,0,657.88,365.34Z" transform="translate(-265.79 -287.36)"/><path class="cls-1" d="M694.24,339.68a15.6,15.6,0,0,1,6.2,1.24,15.85,15.85,0,0,1,8.47,8.46,16.21,16.21,0,0,1,0,12.41,15.84,15.84,0,0,1-8.47,8.46,16.19,16.19,0,0,1-12.41,0,15.86,15.86,0,0,1-8.46-8.46,16.21,16.21,0,0,1,0-12.41,15.86,15.86,0,0,1,8.46-8.46A15.63,15.63,0,0,1,694.24,339.68Zm0,25.6a9.53,9.53,0,0,0,3.75-.75,9.62,9.62,0,0,0,5.17-5.18,9.75,9.75,0,0,0-2.07-10.63,9.68,9.68,0,0,0-3.09-2.08,9.76,9.76,0,0,0-7.5,0,9.74,9.74,0,0,0-3.09,2.08,10.11,10.11,0,0,0-2.1,3.1,9.43,9.43,0,0,0,0,7.53,10.12,10.12,0,0,0,2.1,3.1,9.75,9.75,0,0,0,3.09,2.08A9.53,9.53,0,0,0,694.27,365.27Z" transform="translate(-265.79 -287.36)"/><path class="cls-1" d="M715.59,318.6h6.21v52.58h-6.21Z" transform="translate(-265.79 -287.36)"/><path class="cls-1" d="M745.69,357.69H733.58a9.81,9.81,0,0,0,1.24,3,9.61,9.61,0,0,0,2.14,2.44,9.72,9.72,0,0,0,2.83,1.6,9.52,9.52,0,0,0,3.31.57,9.4,9.4,0,0,0,3.95-.84,10.07,10.07,0,0,0,3.22-2.35h7.29a10.93,10.93,0,0,1-.87,1.72c-.34.54-.72,1.07-1.12,1.59a16,16,0,0,1-5.42,4.43,15.22,15.22,0,0,1-7,1.66,15.64,15.64,0,0,1-6.21-1.24,15.86,15.86,0,0,1-8.46-8.46,16.18,16.18,0,0,1,0-12.41,15.85,15.85,0,0,1,8.46-8.46,15.64,15.64,0,0,1,6.21-1.23,15.3,15.3,0,0,1,7,1.66,15.74,15.74,0,0,1,5.42,4.49,15.5,15.5,0,0,1,3.43,9.75,10.87,10.87,0,0,1-.18,2H745.69Zm-2.59-11.74a9.37,9.37,0,0,0-5.27,1.52,9.82,9.82,0,0,0-3.52,4h17.59c-.2-.31-.39-.63-.57-1a10.56,10.56,0,0,0-.57-.9,9.78,9.78,0,0,0-3.37-2.7A9.49,9.49,0,0,0,743.1,345.94Z" transform="translate(-265.79 -287.36)"/></svg>