<?xml version="1.0" encoding="utf-8"?>
<!-- Generator: Adobe Illustrator 21.1.0, SVG Export Plug-In . SVG Version: 6.00 Build 0)  -->
<svg version="1.1" id="Layer_1" xmlns="http://www.w3.org/2000/svg" xmlns:xlink="http://www.w3.org/1999/xlink" x="0px" y="0px"
	 viewBox="0 0 512 512" style="enable-background:new 0 0 512 512;" xml:space="preserve">
<style type="text/css">
	.st0{fill:#FAFBFB;}
	.st1{fill-rule:evenodd;clip-rule:evenodd;fill:#282827;}
</style>
<g>
	<rect x="-23" y="239" class="st0" width="562" height="35"/>
	<path class="st1" d="M-6,244.4c0,0,0.1,0,0.1,0c0.2,0,0.5,0,0.7,0.1c0.5,0.1,1,0.2,1.4,0.3c2.9,0.9,5.2,3.4,5.9,6.5
		c0.1,0.6,0.2,1.2,0.2,1.9c0.1,2.1-0.5,4-1.7,5.7c0,0-0.1,0.1-0.1,0.1c1.7,1.8,3.5,3.7,5.2,5.5c-0.8,0.8-1.7,1.7-2.5,2.5
		c-1.8-1.9-3.6-3.8-5.4-5.6c0,0-0.1,0-0.1,0.1c-0.8,0.4-1.6,0.8-2.5,0.9c-0.4,0.1-0.8,0.1-1.2,0.1c-0.4,0-0.7,0-1.1,0
		c-0.6,0-1.3-0.2-1.9-0.3c-1.9-0.6-3.4-1.7-4.6-3.3c-0.8-1.1-1.3-2.4-1.6-3.7c-0.1-0.4-0.1-0.9-0.1-1.3c0-0.1,0-0.2,0-0.3
		c0-0.1,0-0.3,0-0.4c0-0.1,0-0.1,0-0.2c0-0.2,0-0.4,0.1-0.6c0.1-0.6,0.2-1.1,0.4-1.6c0.9-2.7,2.9-4.8,5.5-5.8
		c0.6-0.2,1.2-0.4,1.9-0.4c0.3,0,0.5,0,0.8-0.1c0,0,0.1,0,0.1,0C-6.3,244.4-6.1,244.4-6,244.4 M-6.2,248.1c-2.9,0-5.3,2.3-5.4,5.3
		c-0.1,3.1,2.3,5.5,5.2,5.6c2.9,0.1,5.4-2.3,5.4-5.4C-1,250.6-3.3,248.1-6.2,248.1"/>
</g>
</svg>
