<?xml version="1.0" encoding="utf-8"?>
<!-- Generator: Adobe Illustrator 21.1.0, SVG Export Plug-In . SVG Version: 6.00 Build 0)  -->
<svg version="1.1"
	 id="svg23413" xmlns:cc="http://creativecommons.org/ns#" xmlns:dc="http://purl.org/dc/elements/1.1/" xmlns:rdf="http://www.w3.org/1999/02/22-rdf-syntax-ns#" xmlns:svg="http://www.w3.org/2000/svg"
	 xmlns="http://www.w3.org/2000/svg" xmlns:xlink="http://www.w3.org/1999/xlink" x="0px" y="0px" viewBox="0 0 797.2 67.6"
	 style="enable-background:new 0 0 797.2 67.6;" xml:space="preserve">
<style type="text/css">
	.st0{fill:#FFFFFF;}
</style>
<path class="st0" d="M411.7,2.6c7,0,9.6,9,10.7,19.9h1.8v-22h-1.2c-0.5,2.1-1.4,3.1-2.6,3.1c-2.2,0-3.4-3.5-8.7-3.5
	C403.6,0.1,398,7,398,15.9c0,16.3,21.7,23.2,21.7,38.3c0,6.9-3.2,10.7-7.5,10.7c-6.5,0-10.7-7.6-11.9-19.9h-1.8v22h1.2
	c1-3.2,2.2-3.5,3.3-3.5c1.8,0,3.8,3.9,9.4,3.9c8.6,0,15.2-7.4,15.2-17.7l0,0c0-19.8-21.7-25-21.7-39.4
	C405.7,7.2,406.9,2.6,411.7,2.6z"/>
<path class="st0" d="M388.8,2.7l1.8-0.5V0.5H377v1.7l2,0.4c2.9,0.6,3.6,2.3,2.2,9.5l-7,34.7L367,10.1c-0.8-3.8-1.3-6.9,1.9-7.4
	l2.1-0.4V0.5h-18.7v1.7l1.3,0.3c1.9,0.5,2.2,1.6,3,5.3l1.8,8.8l-5.7,29.9l-7.4-36.4c-0.9-4-1.2-7,1.9-7.5l1.5-0.3V0.5h-19v1.7
	l1.8,0.5c1.7,0.5,2.7,1.4,3.9,6.7l12.3,57.9v0h4l8.3-44.1l9.2,44.1h3.5l11.8-56.1C385.8,5.3,386.4,3.3,388.8,2.7z"/>
<path class="st0" d="M447.4,2.2l2.4,0.6c1.9,0.5,3,1.2,3,4v46.5c0,6.5-0.6,11.7-5.4,11.7c-3.1,0-5.4-2.4-5.3-4.2
	c0.3-3,5.3-2.8,5.7-7.6c0.3-3.5-1.9-4.9-4-5.2c-3-0.4-6.7,2.1-6.8,7.2c-0.1,6.5,4.2,12.4,11.4,12.4c8,0,14.2-5.4,14.2-15.8V6.9l0,0
	c0-2.7,0.7-3.6,2.6-4.1l2.1-0.6V0.5h-20V2.2z"/>
</svg>
