<?xml version="1.0" encoding="utf-8"?>
<!-- Generator: Adobe Illustrator 21.1.0, SVG Export Plug-In . SVG Version: 6.00 Build 0)  -->
<svg version="1.1"
	 id="svg23413" xmlns:cc="http://creativecommons.org/ns#" xmlns:dc="http://purl.org/dc/elements/1.1/" xmlns:rdf="http://www.w3.org/1999/02/22-rdf-syntax-ns#" xmlns:svg="http://www.w3.org/2000/svg"
	 xmlns="http://www.w3.org/2000/svg" xmlns:xlink="http://www.w3.org/1999/xlink" x="0px" y="0px" viewBox="0 0 137.6 67.6"
	 style="enable-background:new 0 0 137.6 67.6;" xml:space="preserve">
<style type="text/css">
	.st0{fill:#FFFFFF;}
</style>
<path class="st0" d="M82,2.6c7,0,9.6,9,10.7,19.9h1.8v-22h-1.2c-0.5,2.1-1.4,3.1-2.6,3.1c-2.2,0-3.4-3.5-8.7-3.5
	c-8.1,0-13.7,6.9-13.7,15.8C68.3,32.2,90,39.1,90,54.2c0,6.9-3.2,10.7-7.5,10.7c-6.5,0-10.7-7.6-11.9-19.9h-1.8v22H70
	c1-3.2,2.2-3.5,3.3-3.5c1.8,0,3.8,3.9,9.4,3.9c8.6,0,15.2-7.4,15.2-17.7l0,0c0-19.8-21.7-25-21.7-39.4C76,7.2,77.2,2.6,82,2.6z"/>
<path class="st0" d="M59.1,2.7l1.8-0.5V0.5H47.3v1.7l2,0.4c2.9,0.6,3.6,2.3,2.2,9.5l-7,34.7l-7.2-36.7c-0.8-3.8-1.3-6.9,1.9-7.4
	l2.1-0.4V0.5H22.6v1.7l1.3,0.3c1.9,0.5,2.2,1.6,3,5.3l1.8,8.8L23,46.5l-7.4-36.4c-0.9-4-1.2-7,1.9-7.5L19,2.3V0.5H0v1.7l1.8,0.5
	c1.7,0.5,2.7,1.4,3.9,6.7L18,67.3l0,0h4l8.3-44.1l9.2,44.1H43l11.8-56.1C56.1,5.3,56.7,3.3,59.1,2.7z"/>
<path class="st0" d="M117.7,2.2l2.4,0.6c1.9,0.5,3,1.2,3,4v46.5c0,6.5-0.6,11.7-5.4,11.7c-3.1,0-5.4-2.4-5.3-4.2
	c0.3-3,5.3-2.8,5.7-7.6c0.3-3.5-1.9-4.9-4-5.2c-3-0.4-6.7,2.1-6.8,7.2c-0.1,6.5,4.2,12.4,11.4,12.4c8,0,14.2-5.4,14.2-15.8V6.9l0,0
	c0-2.7,0.7-3.6,2.6-4.1l2.1-0.6V0.5h-20L117.7,2.2L117.7,2.2z"/>
</svg>
